<svg width="60" height="75" viewBox="0 0 60 75" fill="none" xmlns="http://www.w3.org/2000/svg">
<path d="M12.1757 22.9571C11.8183 26.757 11.5675 33.4819 13.8185 36.3443C13.8185 36.3443 12.7589 28.957 22.2583 19.6884C26.0831 15.9572 26.9672 10.8822 25.6317 7.07605C24.873 4.91983 23.4872 3.13861 22.2834 1.89488C21.5811 1.16364 22.1203 -0.0425915 23.1424 0.00115782C29.3248 0.276154 39.3447 1.98863 43.6021 12.6385C45.4707 17.3134 45.6086 22.1446 44.7182 27.057C44.1539 30.1944 42.1475 37.1693 46.7247 38.0256C49.9915 38.6381 51.5716 36.0506 52.2801 34.1881C52.5748 33.4131 53.5969 33.2194 54.1487 33.8381C59.6665 40.0943 60.1367 47.4629 58.9956 53.8066C56.7884 66.0689 44.3295 74.9938 31.9521 74.9938C16.4897 74.9938 4.1812 66.1751 0.989652 50.2129C-0.295745 43.7692 0.35636 31.0194 10.326 22.0196C11.0659 21.3446 12.2761 21.9446 12.1757 22.9571Z" fill="url(#paint0_radial_61_11)"/>
<path d="M37.6015 45.8879C31.9019 38.5755 34.4539 30.2319 35.8521 26.907C36.0402 26.4695 35.5386 26.057 35.1436 26.3257C32.6919 27.9882 27.6695 31.9007 25.3307 37.4068C22.1642 44.8505 22.39 48.4941 24.2648 52.9441C25.3934 55.6253 24.0829 56.194 23.4245 56.294C22.785 56.394 22.1956 55.969 21.7253 55.5253C20.3724 54.2307 19.4084 52.5858 18.9413 50.7754C18.841 50.3879 18.3331 50.2816 18.1011 50.6004C16.3455 53.0191 15.4363 56.9003 15.3924 59.644C15.2544 68.1251 22.2834 75 30.7858 75C41.5016 75 49.3081 63.1877 43.1507 53.3128C41.3637 50.4379 39.6833 48.5566 37.6015 45.8879Z" fill="url(#paint1_radial_61_11)"/>
<defs>
<radialGradient id="paint0_radial_61_11" cx="0" cy="0" r="1" gradientUnits="userSpaceOnUse" gradientTransform="translate(28.8895 75.1881) rotate(-179.752) scale(44.2601 72.3865)">
<stop offset="0.314" stop-color="#FF9800"/>
<stop offset="0.662" stop-color="#FF6D00"/>
<stop offset="0.972" stop-color="#F44336"/>
</radialGradient>
<radialGradient id="paint1_radial_61_11" cx="0" cy="0" r="1" gradientUnits="userSpaceOnUse" gradientTransform="translate(31.3752 31.2871) rotate(90.5806) scale(46.1595 34.8515)">
<stop offset="0.214" stop-color="#FFF176"/>
<stop offset="0.328" stop-color="#FFF27D"/>
<stop offset="0.487" stop-color="#FFF48F"/>
<stop offset="0.672" stop-color="#FFF7AD"/>
<stop offset="0.793" stop-color="#FFF9C4"/>
<stop offset="0.822" stop-color="#FFF8BD" stop-opacity="0.804"/>
<stop offset="0.863" stop-color="#FFF6AB" stop-opacity="0.529"/>
<stop offset="0.91" stop-color="#FFF38D" stop-opacity="0.209"/>
<stop offset="0.941" stop-color="#FFF176" stop-opacity="0"/>
</radialGradient>
</defs>
</svg>
